# Blender 5.0.0
# www.blender.org
mtllib fountain-water.mtl
o Cube
v 0.000000 0.675000 -5.280000
v 0.000000 0.675000 -5.280000
v 0.000000 0.675000 5.280000
v 0.000000 0.675000 5.280000
v -5.280000 0.675000 0.000000
v -5.280000 0.675000 0.000000
v 5.280000 0.675000 0.000000
v 5.280000 0.675000 0.000000
v -3.520000 0.675000 3.520000
v -3.520000 0.675000 3.520000
v -3.520000 0.675000 -3.520000
v -3.520000 0.675000 -3.520000
v 3.520000 0.675000 3.520000
v 3.520000 0.675000 3.520000
v 3.520000 0.675000 -3.520000
v 3.520000 0.675000 -3.520000
v 0.000000 0.700000 -4.032001
v 0.000000 0.700000 4.032001
v -4.032001 0.700000 0.000000
v 4.032001 0.700000 0.000000
v -2.688000 0.700000 2.688000
v -2.688000 0.700000 -2.688000
v 2.688000 0.700000 2.688000
v 2.688000 0.700000 -2.688000
v 0.000000 0.700000 -2.822400
v 0.000000 0.700000 2.822400
v -2.822400 0.700000 0.000000
v 2.822400 0.700000 0.000000
v -1.881600 0.700000 1.881600
v -1.881600 0.700000 -1.881600
v 1.881600 0.700000 1.881600
v 1.881600 0.700000 -1.881600
v 0.000000 0.700000 -1.693440
v 0.000000 0.700000 1.693440
v -1.693440 0.700000 0.000000
v 1.693440 0.700000 0.000000
v -1.128960 0.700000 1.128960
v -1.128960 0.700000 -1.128960
v 1.128960 0.700000 1.128960
v 1.128960 0.700000 -1.128960
v 0.000000 0.700000 -0.846720
v 0.000000 0.700000 0.846720
v -0.846720 0.700000 0.000000
v 0.846720 0.700000 0.000000
v -0.564480 0.700000 0.564480
v -0.564480 0.700000 -0.564480
v 0.564480 0.700000 0.564480
v 0.564480 0.700000 -0.564480
v 0.000000 0.700000 0.000000
vn -0.0000 1.0000 -0.0000
vn 0.0200 0.9997 -0.0100
vn 0.0200 0.9997 0.0100
vn 0.0100 0.9997 0.0200
vn -0.0100 0.9997 0.0200
vn -0.0200 0.9997 0.0100
vn -0.0200 0.9997 -0.0100
vn -0.0100 0.9997 -0.0200
vn 0.0100 0.9997 -0.0200
vt 0.000000 0.000000
s 0
usemtl water
f 19/1/1 21/1/1 29/1/1
f 19/1/1 29/1/1 27/1/1
f 17/1/1 22/1/1 30/1/1
f 17/1/1 30/1/1 25/1/1
f 22/1/1 19/1/1 27/1/1
f 22/1/1 27/1/1 30/1/1
f 20/1/1 24/1/1 32/1/1
f 20/1/1 32/1/1 28/1/1
f 18/1/1 23/1/1 31/1/1
f 18/1/1 31/1/1 26/1/1
f 23/1/1 20/1/1 28/1/1
f 23/1/1 28/1/1 31/1/1
f 24/1/1 17/1/1 25/1/1
f 24/1/1 25/1/1 32/1/1
f 21/1/1 18/1/1 26/1/1
f 21/1/1 26/1/1 29/1/1
f 32/1/1 25/1/1 33/1/1
f 32/1/1 33/1/1 40/1/1
f 29/1/1 26/1/1 34/1/1
f 29/1/1 34/1/1 37/1/1
f 27/1/1 29/1/1 37/1/1
f 27/1/1 37/1/1 35/1/1
f 25/1/1 30/1/1 38/1/1
f 25/1/1 38/1/1 33/1/1
f 30/1/1 27/1/1 35/1/1
f 30/1/1 35/1/1 38/1/1
f 28/1/1 32/1/1 40/1/1
f 28/1/1 40/1/1 36/1/1
f 26/1/1 31/1/1 39/1/1
f 26/1/1 39/1/1 34/1/1
f 31/1/1 28/1/1 36/1/1
f 31/1/1 36/1/1 39/1/1
f 36/1/1 40/1/1 48/1/1
f 36/1/1 48/1/1 44/1/1
f 34/1/1 39/1/1 47/1/1
f 34/1/1 47/1/1 42/1/1
f 39/1/1 36/1/1 44/1/1
f 39/1/1 44/1/1 47/1/1
f 40/1/1 33/1/1 41/1/1
f 40/1/1 41/1/1 48/1/1
f 37/1/1 34/1/1 42/1/1
f 37/1/1 42/1/1 45/1/1
f 35/1/1 37/1/1 45/1/1
f 35/1/1 45/1/1 43/1/1
f 33/1/1 38/1/1 46/1/1
f 33/1/1 46/1/1 41/1/1
f 38/1/1 35/1/1 43/1/1
f 38/1/1 43/1/1 46/1/1
f 46/1/1 43/1/1 49/1/1
f 44/1/1 48/1/1 49/1/1
f 42/1/1 47/1/1 49/1/1
f 47/1/1 44/1/1 49/1/1
f 48/1/1 41/1/1 49/1/1
f 45/1/1 42/1/1 49/1/1
f 43/1/1 45/1/1 49/1/1
f 41/1/1 46/1/1 49/1/1
f 16/1/2 20/1/2 8/1/2
f 24/1/2 20/1/2 16/1/2
f 14/1/3 8/1/3 23/1/3
f 20/1/3 23/1/3 8/1/3
f 23/1/4 18/1/4 4/1/4
f 14/1/4 23/1/4 4/1/4
f 18/1/5 21/1/5 4/1/5
f 10/1/5 4/1/5 21/1/5
f 21/1/6 19/1/6 10/1/6
f 10/1/6 19/1/6 6/1/6
f 19/1/7 22/1/7 6/1/7
f 6/1/7 22/1/7 12/1/7
f 22/1/8 17/1/8 12/1/8
f 12/1/8 17/1/8 2/1/8
f 17/1/9 24/1/9 2/1/9
f 24/1/9 16/1/9 2/1/9
l 7 14
l 1 15
l 4 9
l 5 10
l 2 11
l 3 13
