# Blender 4.4.3
# www.blender.org
mtllib Water LOD Far.mtl
o Cube.001
v -8.000000 0.000001 8.000000
v -10.000000 0.000000 6.000000
v -8.000000 0.000000 4.000000
v -10.000000 0.000000 2.000000
v -8.000000 0.000000 0.000000
v -6.000000 0.000001 10.000000
v -4.000000 0.000001 8.000000
v -4.000000 0.000000 4.000000
v -4.000000 0.000000 0.000000
v -2.000000 0.000001 10.000000
v 0.000000 0.000001 8.000000
v 0.000000 0.000000 4.000000
v 0.000000 0.000000 0.000000
v -10.000000 -0.000000 -2.000000
v -8.000000 -0.000000 -4.000000
v -4.000000 -0.000000 -4.000000
v 0.000000 -0.000000 -4.000000
v -10.000000 -0.000000 -6.000000
v -8.000000 -0.000001 -8.000000
v -4.000000 -0.000001 -8.000000
v 0.000000 -0.000001 -8.000000
v -6.000000 -0.000001 -10.000000
v -2.000000 -0.000001 -10.000000
v 2.000000 0.000001 10.000000
v 2.000000 -0.000001 -10.000000
v 4.000000 0.000001 8.000000
v 4.000000 0.000000 4.000000
v 4.000000 0.000000 0.000000
v 4.000000 -0.000000 -4.000000
v 4.000000 -0.000001 -8.000000
v 6.000000 0.000001 10.000000
v 6.000000 -0.000001 -10.000000
v 8.000000 0.000001 8.000000
v 8.000000 0.000000 4.000000
v 8.000000 0.000000 0.000000
v 8.000000 -0.000000 -4.000000
v 8.000000 -0.000001 -8.000000
v 10.000000 0.000000 6.000000
v 10.000000 0.000000 2.000000
v 10.000000 -0.000000 -2.000000
v 10.000000 -0.000000 -6.000000
v -10.000000 0.000001 8.000000
v -8.000000 0.000001 10.000000
v 10.000000 -0.000001 -8.000000
v 10.000000 -0.000000 -4.000000
v 10.000000 0.000000 0.000000
v 8.000000 -0.000001 -10.000000
v 10.000000 0.000001 8.000000
v 10.000000 0.000000 4.000000
v 8.000000 0.000001 10.000000
v 4.000000 -0.000001 -10.000000
v 4.000000 0.000001 10.000000
v 0.000000 -0.000001 -10.000000
v -8.000000 -0.000001 -10.000000
v -4.000000 -0.000001 -10.000000
v -10.000000 -0.000001 -8.000000
v -10.000000 -0.000000 -4.000000
v 0.000000 0.000001 10.000000
v -10.000000 0.000000 4.000000
v -4.000000 0.000001 10.000000
v -10.000000 0.000000 0.000000
v 10.000000 -0.000001 -10.000000
v -10.000000 -0.000001 -10.000000
v -10.000000 0.000001 10.000000
v 10.000000 0.000001 10.000000
vn -0.0000 1.0000 -0.0000
vt 0.625000 0.500000
vt 0.625000 0.750000
vt 0.750000 0.500000
vt 0.875000 0.500000
vt 0.625000 0.625000
vt 0.000000 0.000000
vt 0.750000 0.750000
vt 0.875000 0.625000
s 1
usemtl Water
f 11/1/1 10/2/1 58/2/1 24/2/1
f 16/1/1 9/1/1 13/1/1 17/1/1
f 3/1/1 1/1/1 7/1/1 8/1/1
f 7/1/1 11/1/1 12/1/1 8/1/1
f 22/1/1 54/3/1 19/1/1
f 14/4/1 5/1/1 15/1/1
f 38/1/1 33/1/1 48/5/1
f 29/1/1 28/1/1 35/1/1 36/1/1
f 33/1/1 38/1/1 34/1/1
f 40/1/1 36/1/1 35/1/1
f 23/1/1 55/1/1 22/1/1 20/1/1
f 21/1/1 17/1/1 29/1/1 30/1/1
f 31/2/1 50/2/1 33/1/1
f 11/1/1 24/2/1 26/1/1
f 19/1/1 15/1/1 16/1/1 20/1/1
f 26/1/1 27/1/1 12/1/1 11/1/1
f 16/1/1 15/1/1 5/1/1 9/1/1
f 34/1/1 39/1/1 35/1/1
f 34/1/1 35/1/1 28/1/1 27/1/1
f 47/1/1 37/1/1 62/6/1
f 6/2/1 7/1/1 1/1/1
f 27/1/1 26/1/1 33/1/1 34/1/1
f 34/1/1 38/1/1 49/1/1 39/1/1
f 39/1/1 46/1/1 40/1/1 35/1/1
f 26/1/1 31/2/1 33/1/1
f 8/1/1 9/1/1 5/1/1 3/1/1
f 20/1/1 22/1/1 19/1/1
f 18/4/1 15/1/1 19/1/1
f 21/1/1 23/1/1 20/1/1
f 37/1/1 32/1/1 30/1/1
f 32/1/1 51/1/1 25/1/1 30/1/1
f 36/1/1 37/1/1 30/1/1 29/1/1
f 47/1/1 32/1/1 37/1/1
f 41/1/1 44/1/1 37/1/1
f 48/5/1 33/1/1 65/6/1
f 29/1/1 17/1/1 13/1/1 28/1/1
f 56/4/1 18/4/1 19/1/1
f 14/4/1 61/4/1 4/4/1 5/1/1
f 36/1/1 41/1/1 37/1/1
f 36/1/1 40/1/1 45/1/1 41/1/1
f 30/1/1 25/1/1 21/1/1
f 12/1/1 13/1/1 9/1/1 8/1/1
f 7/1/1 10/2/1 11/1/1
f 56/4/1 19/1/1 63/6/1
f 18/4/1 57/4/1 14/4/1 15/1/1
f 25/1/1 53/1/1 23/1/1 21/1/1
f 26/1/1 24/2/1 52/2/1 31/2/1
f 27/1/1 28/1/1 13/1/1 12/1/1
f 3/1/1 4/4/1 59/4/1 2/4/1
f 6/2/1 60/2/1 10/2/1 7/1/1
f 17/1/1 21/1/1 20/1/1 16/1/1
f 43/7/1 6/2/1 1/1/1
f 2/4/1 42/8/1 1/1/1
f 1/1/1 42/8/1 64/6/1
f 3/1/1 2/4/1 1/1/1
f 4/4/1 3/1/1 5/1/1
f 37/1/1 44/1/1 62/6/1
f 64/6/1 43/7/1 1/1/1
f 19/1/1 54/3/1 63/6/1
f 33/1/1 50/2/1 65/6/1
