# Blender 4.4.3
# www.blender.org
mtllib Water LOD Close.mtl
o Cube.001
v -8.000000 0.000001 8.000000
v -8.000000 0.000001 10.000000
v -10.000000 0.000001 8.000000
v -10.000000 0.000001 10.000000
v -8.000000 0.000000 6.000000
v -10.000000 0.000000 6.000000
v -8.000000 0.000000 4.000000
v -10.000000 0.000000 4.000000
v -8.000000 0.000000 2.000000
v -10.000000 0.000000 2.000000
v -8.000000 0.000000 0.000000
v -10.000000 0.000000 0.000000
v -6.000000 0.000001 8.000000
v -6.000000 0.000001 10.000000
v -6.000000 0.000000 6.000000
v -6.000000 0.000000 4.000000
v -6.000000 0.000000 2.000000
v -6.000000 0.000000 0.000000
v -4.000000 0.000001 8.000000
v -4.000000 0.000001 10.000000
v -4.000000 0.000000 6.000000
v -4.000000 0.000000 4.000000
v -4.000000 0.000000 2.000000
v -4.000000 0.000000 0.000000
v -2.000000 0.000001 8.000000
v -2.000000 0.000001 10.000000
v -2.000000 0.000000 6.000000
v -2.000000 0.000000 4.000000
v -2.000000 0.000000 2.000000
v -2.000000 0.000000 0.000000
v 0.000000 0.000001 8.000000
v 0.000000 0.000001 10.000000
v 0.000000 0.000000 6.000000
v 0.000000 0.000000 4.000000
v 0.000000 0.000000 2.000000
v 0.000000 0.000000 0.000000
v -8.000000 -0.000000 -2.000000
v -10.000000 -0.000000 -2.000000
v -6.000000 -0.000000 -2.000000
v -4.000000 -0.000000 -2.000000
v -2.000000 -0.000000 -2.000000
v 0.000000 -0.000000 -2.000000
v -8.000000 -0.000000 -4.000000
v -10.000000 -0.000000 -4.000000
v -6.000000 -0.000000 -4.000000
v -4.000000 -0.000000 -4.000000
v -2.000000 -0.000000 -4.000000
v 0.000000 -0.000000 -4.000000
v -8.000000 -0.000000 -6.000000
v -10.000000 -0.000000 -6.000000
v -6.000000 -0.000000 -6.000000
v -4.000000 -0.000000 -6.000000
v -2.000000 -0.000000 -6.000000
v 0.000000 -0.000000 -6.000000
v -8.000000 -0.000001 -8.000000
v -10.000000 -0.000001 -8.000000
v -6.000000 -0.000001 -8.000000
v -4.000000 -0.000001 -8.000000
v -2.000000 -0.000001 -8.000000
v 0.000000 -0.000001 -8.000000
v -8.000000 -0.000001 -10.000000
v -10.000000 -0.000001 -10.000000
v -6.000000 -0.000001 -10.000000
v -4.000000 -0.000001 -10.000000
v -2.000000 -0.000001 -10.000000
v 0.000000 -0.000001 -10.000000
v 2.000000 0.000001 8.000000
v 2.000000 0.000001 10.000000
v 2.000000 0.000000 6.000000
v 2.000000 0.000000 4.000000
v 2.000000 0.000000 2.000000
v 2.000000 0.000000 0.000000
v 2.000000 -0.000000 -2.000000
v 2.000000 -0.000000 -4.000000
v 2.000000 -0.000000 -6.000000
v 2.000000 -0.000001 -8.000000
v 2.000000 -0.000001 -10.000000
v 4.000000 0.000001 8.000000
v 4.000000 0.000001 10.000000
v 4.000000 0.000000 6.000000
v 4.000000 0.000000 4.000000
v 4.000000 0.000000 2.000000
v 4.000000 0.000000 0.000000
v 4.000000 -0.000000 -2.000000
v 4.000000 -0.000000 -4.000000
v 4.000000 -0.000000 -6.000000
v 4.000000 -0.000001 -8.000000
v 4.000000 -0.000001 -10.000000
v 6.000000 0.000001 8.000000
v 6.000000 0.000001 10.000000
v 6.000000 0.000000 6.000000
v 6.000000 0.000000 4.000000
v 6.000000 0.000000 2.000000
v 6.000000 0.000000 0.000000
v 6.000000 -0.000000 -2.000000
v 6.000000 -0.000000 -4.000000
v 6.000000 -0.000000 -6.000000
v 6.000000 -0.000001 -8.000000
v 6.000000 -0.000001 -10.000000
v 8.000000 0.000001 8.000000
v 8.000000 0.000001 10.000000
v 8.000000 0.000000 6.000000
v 8.000000 0.000000 4.000000
v 8.000000 0.000000 2.000000
v 8.000000 0.000000 0.000000
v 8.000000 -0.000000 -2.000000
v 8.000000 -0.000000 -4.000000
v 8.000000 -0.000000 -6.000000
v 8.000000 -0.000001 -8.000000
v 8.000000 -0.000001 -10.000000
v 10.000000 0.000001 8.000000
v 10.000000 0.000001 10.000000
v 10.000000 0.000000 6.000000
v 10.000000 0.000000 4.000000
v 10.000000 0.000000 2.000000
v 10.000000 0.000000 0.000000
v 10.000000 -0.000000 -2.000000
v 10.000000 -0.000000 -4.000000
v 10.000000 -0.000000 -6.000000
v 10.000000 -0.000001 -8.000000
v 10.000000 -0.000001 -10.000000
vn -0.0000 1.0000 -0.0000
vt 0.625000 0.750000
vt 0.625000 0.500000
vt 0.875000 0.500000
vt 0.875000 0.750000
vt 0.000000 0.000000
s 1
usemtl Water
f 14/1/1 20/1/1 19/2/1 13/2/1
f 75/2/1 86/2/1 87/2/1 76/2/1
f 8/3/1 7/2/1 9/2/1 10/3/1
f 12/3/1 11/2/1 37/2/1 38/3/1
f 21/2/1 15/2/1 13/2/1 19/2/1
f 21/2/1 22/2/1 16/2/1 15/2/1
f 93/2/1 104/2/1 105/2/1 94/2/1
f 28/2/1 34/2/1 35/2/1 29/2/1
f 10/3/1 9/2/1 11/2/1 12/3/1
f 9/2/1 7/2/1 16/2/1 17/2/1
f 31/2/1 25/2/1 26/1/1 32/1/1
f 33/2/1 69/2/1 70/2/1 34/2/1
f 25/2/1 19/2/1 20/1/1 26/1/1
f 82/2/1 83/2/1 72/2/1 71/2/1
f 34/2/1 70/2/1 71/2/1 35/2/1
f 110/2/1 99/2/1 98/2/1 109/2/1
f 118/2/1 107/2/1 106/2/1 117/2/1
f 47/2/1 53/2/1 52/2/1 46/2/1
f 40/2/1 46/2/1 45/2/1 39/2/1
f 38/3/1 37/2/1 43/2/1 44/3/1
f 46/2/1 52/2/1 51/2/1 45/2/1
f 44/3/1 43/2/1 49/2/1 50/3/1
f 27/2/1 21/2/1 19/2/1 25/2/1
f 54/2/1 53/2/1 47/2/1 48/2/1
f 43/2/1 45/2/1 51/2/1 49/2/1
f 58/2/1 64/2/1 63/2/1 57/2/1
f 77/2/1 76/2/1 87/2/1 88/2/1
f 51/2/1 52/2/1 58/2/1 57/2/1
f 59/2/1 65/2/1 64/2/1 58/2/1
f 66/2/1 65/2/1 59/2/1 60/2/1
f 63/2/1 61/2/1 55/2/1 57/2/1
f 51/2/1 57/2/1 55/2/1 49/2/1
f 70/2/1 81/2/1 82/2/1 71/2/1
f 41/2/1 47/2/1 46/2/1 40/2/1
f 79/1/1 90/1/1 89/2/1 78/2/1
f 81/2/1 92/2/1 93/2/1 82/2/1
f 74/2/1 73/2/1 84/2/1 85/2/1
f 91/2/1 92/2/1 81/2/1 80/2/1
f 78/2/1 80/2/1 69/2/1 67/2/1
f 89/2/1 90/1/1 101/1/1 100/2/1
f 99/2/1 88/2/1 87/2/1 98/2/1
f 103/2/1 102/2/1 113/2/1 114/2/1
f 111/2/1 100/2/1 101/1/1 112/1/1
f 78/2/1 67/2/1 68/1/1 79/1/1
f 100/2/1 111/2/1 113/2/1 102/2/1
f 91/2/1 89/2/1 100/2/1 102/2/1
f 94/2/1 105/2/1 106/2/1 95/2/1
f 96/2/1 95/2/1 106/2/1 107/2/1
f 6/3/1 5/2/1 7/2/1 8/3/1
f 4/4/1 2/1/1 1/2/1 3/3/1
f 42/2/1 73/2/1 74/2/1 48/2/1
f 72/2/1 36/2/1 35/2/1 71/2/1
f 116/2/1 105/2/1 104/2/1 115/2/1
f 67/2/1 31/2/1 32/1/1 68/1/1
f 92/2/1 91/2/1 102/2/1 103/2/1
f 119/2/1 108/2/1 107/2/1 118/2/1
f 119/2/1 120/2/1 109/2/1 108/2/1
f 96/2/1 107/2/1 108/2/1 97/2/1
f 121/2/1 110/2/1 109/2/1 120/2/1
f 77/2/1 66/2/1 60/2/1 76/2/1
f 54/2/1 60/2/1 59/2/1 53/2/1
f 104/2/1 103/2/1 114/2/1 115/2/1
f 58/2/1 52/2/1 53/2/1 59/2/1
f 56/3/1 50/3/1 49/2/1 55/2/1
f 9/2/1 17/2/1 18/2/1 11/2/1
f 76/2/1 60/2/1 54/2/1 75/2/1
f 11/2/1 18/2/1 39/2/1 37/2/1
f 27/2/1 25/2/1 31/2/1 33/2/1
f 86/2/1 97/5/1 98/2/1 87/2/1
f 67/2/1 69/2/1 33/2/1 31/2/1
f 5/2/1 1/2/1 13/2/1 15/2/1
f 96/2/1 97/5/1 86/2/1 85/2/1
f 83/2/1 84/2/1 73/2/1 72/2/1
f 96/2/1 85/2/1 84/2/1 95/2/1
f 95/2/1 84/2/1 83/2/1 94/2/1
f 94/2/1 83/2/1 82/2/1 93/2/1
f 42/2/1 36/2/1 72/2/1 73/2/1
f 86/2/1 75/2/1 74/2/1 85/2/1
f 42/2/1 48/2/1 47/2/1 41/2/1
f 41/2/1 30/2/1 36/2/1 42/2/1
f 40/2/1 24/2/1 30/2/1 41/2/1
f 28/2/1 29/2/1 23/2/1 22/2/1
f 30/2/1 24/2/1 23/2/1 29/2/1
f 36/2/1 30/2/1 29/2/1 35/2/1
f 74/2/1 75/2/1 54/2/1 48/2/1
f 24/2/1 18/2/1 17/2/1 23/2/1
f 33/2/1 34/2/1 28/2/1 27/2/1
f 22/2/1 23/2/1 17/2/1 16/2/1
f 93/2/1 92/2/1 103/2/1 104/2/1
f 62/3/1 56/3/1 55/2/1 61/2/1
f 7/2/1 5/2/1 15/2/1 16/2/1
f 45/2/1 43/2/1 37/2/1 39/2/1
f 116/2/1 117/2/1 106/2/1 105/2/1
f 78/2/1 89/2/1 91/2/1 80/2/1
f 39/2/1 18/2/1 24/2/1 40/2/1
f 27/2/1 28/2/1 22/2/1 21/2/1
f 97/5/1 108/2/1 109/2/1 98/2/1
f 81/2/1 70/2/1 69/2/1 80/2/1
f 5/2/1 6/3/1 3/3/1 1/2/1
f 1/2/1 2/1/1 14/1/1 13/2/1
